# xmcd
#
# Track frame offsets:
#	150
#	22491
#	35639
#	51132
#	71747
#	91582
#	106505
#	115831
#	126525
#	140156
#	148987
#	170132
#	182283
#	193715
#	204148
#	222534
#	234466
#
# Disc length: 3294 seconds
#
# Revision: 0
# Processed by: cddbd v1.5.2PL0 Copyright (c) Steve Scherf et al.
# Submitted via: EZCDAudioConverter 2.0.7.1
#
DISCID=060cdc11
DTITLE=Aurora Borealis - Wizlavs Viser
DYEAR=2018
DGENRE=Classic
TTITLE0=Meyie Scone
TTITLE1=Ich Warne Dich (Spruch)
TTITLE2=De Erde
TTITLE3=De Voghelin
TTITLE4=Uvol Vph
TTITLE5=Der Walt
TTITLE6=Manich Scimphit (Spruch)
TTITLE7=Ich Partere Dich
TTITLE8=Uve Ich Han Ghe Dacht
TTITLE9=List Du Inder Minne Dro
TTITLE10=Saghe An Du Boser Man (Spruch)
TTITLE11=Der Herbest
TTITLE12=Nach Der Seneden Claghe
TTITLE13=De Vnghelarte
TTITLE14=Menschen Kint (Spruch)
TTITLE15=Loybere Risen
TTITLE16=Uvol Dan
EXTD=
EXTT0=
EXTT1=
EXTT2=
EXTT3=
EXTT4=
EXTT5=
EXTT6=
EXTT7=
EXTT8=
EXTT9=
EXTT10=
EXTT11=
EXTT12=
EXTT13=
EXTT14=
EXTT15=
EXTT16=
PLAYORDER=
